Coordinates
version=1
nRows=44
nColumns=8
inDegrees=yes

Units are S.I. units (second, meters, Newtons, ...)
If the header above contains a line with 'inDegrees', this indicates whether rotational values are in degrees (yes) or radians (no).

endheader
time	bJoint_3	bJoint_4	seatpos	hipangle	kneeangle	footangle	lbackangle
      1.98000000	     -0.00000000	     -0.00000025	     -0.64352507	     24.15595960	    143.36715455	     77.52311415	     11.45777981
      2.00000000	     -0.00000000	     -0.00000025	     -0.57228636	     27.94806850	    134.15792798	     72.10599648	     11.39684215
      2.02000000	     -0.00000000	     -0.00000025	     -0.52853594	     30.55126307	    128.31114386	     68.86240693	     11.45690915
      2.04000000	      0.00000000	     -0.00000025	     -0.48529179	     33.29567751	    122.36813478	     65.66381229	     11.39640719
      2.06000000	     -0.00000000	     -0.00000025	     -0.44154027	     36.23717005	    116.16337175	     62.40054180	     11.45654163
      2.08000000	     -0.00000000	     -0.00000025	     -0.39929531	     39.23774542	    109.95632765	     59.19407307	     11.39609436
      2.10000000	      0.00000000	     -0.00000025	     -0.35754432	     42.37006522	    103.57268576	     55.94275098	     11.45626949
      2.12000000	     -0.00000000	     -0.00000025	     -0.31729937	     45.56613539	     97.13570925	     52.70184464	     11.39580661
      2.14000000	      0.00000000	     -0.00000025	     -0.27927565	     48.77156787	     90.74093625	     49.51250412	      9.12225153
      2.16000000	     -0.00000000	     -0.00000025	     -0.24212560	     52.11262803	     84.12840076	     46.24102879	      6.80855458
      2.18000000	      0.00000000	     -0.00000025	     -0.20720328	     55.48595125	     77.49774155	     42.98369281	      4.58721472
      2.20000000	     -0.00000000	     -0.00000025	     -0.17504352	     58.84485015	     70.93471284	     39.77956299	      2.24307083
      2.22000000	      0.00000000	     -0.00000025	     -0.14497428	     62.27000481	     64.27793743	     36.54794225	     -0.08844195
      2.24000000	      0.00000000	     -0.00000025	     -0.11702439	     65.78459818	     57.48137850	     33.26597667	     -2.32637851
      2.26000000	      0.00000000	     -0.00000025	     -0.09203629	     69.30276187	     50.71005030	     30.01281217	     -4.63212507
      2.28000000	      0.00000000	     -0.00000025	     -0.07007530	     72.82157403	     43.96811333	     26.78968737	     -6.92870675
      2.30000000	      0.00000000	     -0.00000025	     -0.05112917	     76.35035096	     37.23704814	     23.58739910	     -9.21815798
      2.32000000	      0.00000000	     -0.00000025	     -0.03519356	     79.90241749	     30.49164648	     20.39406397	    -11.59086217
      2.34000000	      0.00000000	     -0.00000025	     -0.02227534	     83.49954387	     23.69175412	     17.19129799	    -13.87540382
      2.36000000	      0.00000000	     -0.00000025	     -0.01242353	     87.17519971	     16.77656185	     13.95176156	    -16.16675595
      2.38000000	      0.00000000	     -0.00000025	     -0.00674632	     90.26884468	     10.98328569	     11.25213037	    -18.56445330
      2.40000000	      0.00000000	     -0.00000025	     -0.00455970	     92.04612772	      7.66665418	      9.71278190	    -20.93717855
      2.42000000	      0.00000001	     -0.00000025	     -0.00395796	     92.69254813	      6.46250777	      9.15505590	    -23.18801875
      2.44000000	      0.00000001	     -0.00000025	     -0.00385116	     92.82038060	      6.22452056	      9.04490116	    -25.49504376
      2.46000000	      0.00000000	     -0.00000025	     -0.00396228	     92.68747684	      6.47194999	      9.15942683	    -27.77554706
      2.48000000	      0.00000001	     -0.00000025	     -0.00378416	     92.90314519	      6.07046116	      8.97360635	    -30.11580717
      2.50000000	      0.00000001	     -0.00000025	     -0.00395894	     92.69139621	      6.46465250	      9.15604871	    -32.37217657
      2.52000000	      0.00000001	     -0.00000025	     -0.00377234	     92.91796791	      6.04287193	      8.96083984	    -34.68153007
      2.54000000	      0.00000001	     -0.00000025	     -0.00391383	     92.74478876	      6.36524525	      9.11003401	    -37.00263420
      2.56000000	      0.00000001	     -0.00000025	     -0.00373657	     92.96323419	      5.95862253	      8.92185672	    -39.29844045
      2.58000000	      0.00000001	     -0.00000025	     -0.00382452	     92.85303901	      6.16372734	      9.01676636	    -40.20564060
      2.60000000	      0.00000001	     -0.00000025	     -0.00382457	     92.85298058	      6.16383612	      9.01681669	    -40.20564625
      2.62000000	      0.00000001	     -0.00000025	     -0.00382452	     92.85303779	      6.16372961	      9.01676741	    -40.20563879
      2.64000000	      0.00000001	     -0.00000025	     -0.00382458	     92.85296186	      6.16387096	      9.01683282	    -40.20564498
      2.66000000	      0.00000001	     -0.00000025	     -0.00382461	     92.85293200	      6.16392654	      9.01685854	    -40.20564413
      2.68000000	      0.00000001	     -0.00000025	     -0.00382451	     92.85305480	      6.16369795	      9.01675275	    -40.20563514
      2.70000000	      0.00000001	     -0.00000025	     -0.00382452	     92.85303662	      6.16373180	      9.01676842	    -40.20564070
      2.72000000	      0.00000001	     -0.00000025	     -0.00382455	     92.85300650	      6.16378787	      9.01679436	    -40.20565031
      2.74000000	      0.00000001	     -0.00000025	     -0.00382453	     92.85302961	      6.16374484	      9.01677445	    -40.20564116
      2.76000000	      0.00000001	     -0.00000025	     -0.00382455	     92.85300296	      6.16379444	      9.01679741	    -40.20563728
      2.78000000	      0.00000001	     -0.00000025	     -0.00382455	     92.85300184	      6.16379653	      9.01679838	    -40.20564103
      2.80000000	      0.00000001	     -0.00000025	     -0.00382458	     92.85297020	      6.16385544	      9.01682564	    -40.20564012
      2.82000000	      0.00000001	     -0.00000025	     -0.00382460	     92.85294039	      6.16391092	      9.01685131	    -40.20563926
      2.84000000	      0.00000001	     -0.00000025	     -0.00382431	     92.85328940	      6.16326122	      9.01655063	    -40.20563571
